<?xml version="1.0" encoding="UTF-8" standalone="no"?>
<svg
   version="1.1"
   viewBox="0 0 128.46001 112.73"
   xmlSpace="preserve"
   id="svg24"
   width="100%" height="100%"
   xmlns="http://www.w3.org/2000/svg"
   xmlnsSvg="http://www.w3.org/2000/svg">
  <style
   type="text/css"
   id="style2">
    .st0 {
      fill: #5724E8;
    }
  </style>
  <g
   id="g681"
   clip-path="none"
   transform="translate(-0.5,-27.97)"><path
     class="st0"
     d="m 72.6,119.05 c -19.14,0 -34.71,-15.57 -34.71,-34.72 0,-19.14 15.57,-34.71 34.71,-34.71 19.14,0 34.71,15.57 34.71,34.71 0.01,19.14 -15.57,34.72 -34.71,34.72 m 0,-91.08 c -27.42,0 -50.26,19.59 -55.31,45.54 H 0.5 v 21.65 h 16.79 c 5.05,25.95 27.89,45.54 55.31,45.54 31.13,0 56.36,-25.23 56.36,-56.36 0,-31.13 -25.23,-56.37 -56.36,-56.37"
     id="path18" /><path
     class="st0"
     d="m 72.6,87.09 c -1.52,0 -2.76,-1.24 -2.76,-2.76 0,-1.52 1.24,-2.76 2.76,-2.76 1.52,0 2.76,1.24 2.76,2.76 0,1.52 -1.24,2.76 -2.76,2.76 m 0,-13.57 c -5.97,0 -10.81,4.84 -10.81,10.81 0,5.97 4.84,10.81 10.81,10.81 5.97,0 10.81,-4.84 10.81,-10.81 0,-5.97 -4.84,-10.81 -10.81,-10.81"
     id="path20" /></g>
</svg>
